<?xml version="1.0" encoding="utf-8"?>
<!-- Generator: Adobe Illustrator 24.1.0, SVG Export Plug-In . SVG Version: 6.00 Build 0)  -->
<svg version="1.1" id="cat_x5F_hand" xmlns="http://www.w3.org/2000/svg" xmlns:xlink="http://www.w3.org/1999/xlink" x="0px"
	 y="0px" viewBox="0 0 50.1 112.8" style="enable-background:new 0 0 50.1 112.8;" xml:space="preserve">
<style type="text/css">
	.st0{fill:#E5544A;}
	.st1{fill:#434345;}
	.st2{fill:#DBDBDB;}
	.st3{fill:#FFFFFF;}
</style>
<g id="heart">
	<path id="red_x5F_heart" class="st0" d="M28.8,8.9c0.6-1.6,1-3.3,0.7-5s-1.6-3.2-3.3-3.4c-2.3-0.3-4.1,2.1-4.9,4.3
		c-0.9,2.5-1.3,5.2-1,7.8c-1.1-1.5-1.6-3.4-2.8-4.9c-1.2-1.5-3.6-2.3-4.9-1c-0.6,0.6-0.8,1.6-0.8,2.5c0,2.8,1.6,5.2,3.7,7
		c1.1,0.9,2.3,1.8,3.6,2.4c0.5,0.2,1,0.3,1.5,0.6c0.9,0.5,1,0.4,1.8-0.3c1-0.9,1.8-1.9,2.6-3C26.6,13.8,27.9,11.4,28.8,8.9z"/>
	<path id="outline_x5F_heart" class="st1" d="M29.2,9.1c0.7-1.8,1.3-3.8,0.7-5.7c-0.4-1.5-1.5-2.8-3-3.2c-3.5-0.9-5.7,3.1-6.4,5.8
		c-0.6,2.2-0.8,4.4-0.6,6.7c0.3-0.1,0.6-0.3,0.9-0.4c-1.6-2.3-2.2-5.6-5.2-6.5c-1.2-0.4-2.5-0.2-3.3,0.7c-1,1.1-1,2.7-0.8,4
		c0.5,2.9,2.5,5.3,4.8,7c0.7,0.5,1.3,1,2.1,1.4c0.7,0.4,1.4,0.6,2.1,1c0.5,0.2,1,0.5,1.6,0.2s1.1-0.9,1.6-1.4c2.5-2.6,4.7-6,5.7-9.5
		c0.2-0.6-0.7-0.9-0.9-0.3c-1.2,2.6-2.5,5.1-4.3,7.4c-0.4,0.6-0.9,1.2-1.4,1.7c-0.2,0.2-0.4,0.4-0.7,0.7c-0.1,0.1-0.4,0.4-0.5,0.5
		c-0.2,0-0.4-0.1-0.5-0.2c-0.3-0.1-0.6-0.3-1-0.4c-0.7-0.2-1.3-0.6-2-1c-2.2-1.3-4.2-3.2-5.2-5.6c-0.7-1.8-1-5.8,2.1-5.2
		c2.9,0.6,3.5,4.2,5,6.3c0.3,0.4,0.9,0,0.9-0.4c-0.2-1.7-0.1-3.4,0.3-5.1c0.3-1.5,0.8-3,1.7-4.3c0.7-1,1.8-2,3.1-2
		c1.4,0,2.5,1,3,2.2c0.6,1.5,0,3.6-0.5,5.3C28.3,9.3,29,9.5,29.2,9.1z"/>
</g>
<g id="hand_x5F_cat">
	<g>
		<path class="st2" d="M45.4,80.4c-0.1-0.6-0.1-1.2-0.2-1.8c-0.8,1.5-2.6,2.1-4.6,1.1c-1.9-1-3-1.3-5.1-1
			c-12.5,2.1-22-3.1-29.3-13.8c-0.7-1-0.9-2.4-0.9-4c-1.3,8.2-1.4,16.6-2,24.9C3,91.2,2.4,96.6,2,102.1c-0.3,3.6-0.5,7.1-0.8,10.7
			h46.5c0-3.2-0.1-6.4-0.2-9.5C47.2,95.6,46.4,88,45.4,80.4z"/>
	</g>
	<g>
		<path class="st3" d="M20.3,29.3c-1.5-0.5-3.1-0.1-4.3,0.9c-1.2,0.9-1.8,2.3-1.9,3.8c-0.1,1.3,0.2,2.6,0.2,3.8
			c2.6-2.7,5.8-4.9,9.3-6.3c-0.4-0.4-0.8-0.8-1.2-1.1C21.7,30,21.1,29.6,20.3,29.3z"/>
	</g>
	<g>
		<path class="st3" d="M45.3,75.9c0.2-1.5,0.7-3,1.2-4.4c1-2.6,1.8-5.2,2-7.9c0.3-2.7,0.1-5.6-1-8.2c-1-2.4-3.5-5.1-6.5-4.7
			c-0.4,0.1-0.7-0.2-0.7-0.6c0.1-4-2.7-7.6-6.7-8.2c-0.5,0.5-1.1,1-1.7,1.4c-0.5,0.4-1.2-0.3-0.7-0.8c0.9-0.8,1.8-1.6,2.6-2.4
			c1.5-1.6,2.7-3.7,2.3-6c-0.1-0.6-0.3-1.1-0.6-1.5l0,0c-0.9-1.3-2.6-1.8-4.3-1.8c-4.3,0-8.7,1.9-12.2,4.4c-3.6,2.5-6.6,5.9-8.7,9.8
			C8,48.9,6.7,53.3,5.9,57.7c-0.2,1.1-0.4,2.1-0.6,3.2c0,1.6,0.3,3.1,0.9,4C13.5,75.6,23,80.8,35.6,78.7c2.1-0.3,3.2,0,5.1,1
			c2,1,3.8,0.4,4.6-1.1C45.2,77.7,45.2,76.8,45.3,75.9z"/>
	</g>
	<path class="st1" d="M40.9,49.7c0.2,0.1,0.3,0.3,0.5,0.4h0.1c0-0.2,0-0.4,0-0.6C41.2,49.6,41,49.6,40.9,49.7
		C40.9,49.6,40.9,49.7,40.9,49.7z"/>
	<path class="st1" d="M40.8,49.6c0.2,0,0.4,0,0.6,0c-0.2-4-3-7.8-7.1-8.3c-0.1,0.1-0.3,0.3-0.4,0.4C37.9,42,40.7,45.7,40.8,49.6z"/>
	<path class="st1" d="M41.3,50.1c-0.2-0.1-0.3-0.3-0.5-0.4c0,0.2,0,0.3,0,0.5C41,50.1,41.2,50.2,41.3,50.1z"/>
	<path class="st1" d="M47.3,53.5c0.2,0.3,0.4,0.6,0.6,0.9c0.3,0.5,0.5,1.1,0.7,1.7c0.3,0.8,0.5,1.7,0.6,2.6c0,0.3,0.1,0.6,0.1,0.9
		c0,0.1,0,0.1,0,0.2c0.3,3.8-0.5,7.9-1.7,11c0,0.1-0.1,0.2-0.1,0.3l0,0c-1.6,3.8-1.9,6-1.4,10c1.3,10.5,2.1,21.1,2.2,31.7h0.5
		c0-2.5-0.1-5.1-0.2-7.6c-0.3-7.9-1-15.7-1.9-23.6c-0.2-1.6-0.3-3.2-0.1-4.8c0.1-1.5,0.6-3,1.2-4.4c0.5-1.3,1.1-2.6,1.4-4
		c0.4-1.4,0.7-2.8,0.8-4.2c0.3-2.8,0.1-5.8-0.9-8.5s-3.2-5.2-6.1-5.9c-0.5-0.1-1-0.1-1.6-0.1c0,0.2,0,0.4,0,0.6
		C43.7,50,45.9,51.6,47.3,53.5z"/>
	<path class="st1" d="M47.4,71.2c-0.5,1.2-0.8,2.2-1.5,3.3c-0.4,0.6-0.3,1.3-0.3,2c0.1,0.8-0.1,1.5-0.4,2.1c0,0.6,0.1,1.2,0.2,1.8
		c1,7.6,1.7,15.2,2.1,22.9c0.1,3.2,0.2,6.4,0.2,9.5h0.5C48,102.2,47.3,91.6,46,81.1C45.6,77.2,45.8,75,47.4,71.2z"/>
	<path class="st1" d="M47.6,70.8c1.2-3.1,2.1-7.2,1.7-11C49.6,63.6,48.8,67.8,47.6,70.8z"/>
	<path class="st1" d="M49.2,58.7c0,0.3,0.1,0.6,0.1,0.9C49.3,59.3,49.2,59,49.2,58.7z"/>
	<path class="st1" d="M47.8,54.5c0.3,0.5,0.5,1.1,0.7,1.7C48.3,55.5,48.1,55,47.8,54.5z"/>
	<path class="st1" d="M49.3,59.6c0,0.1,0,0.1,0,0.2C49.3,59.8,49.3,59.7,49.3,59.6z"/>
	<path class="st1" d="M47.3,53.5c0.2,0.3,0.4,0.6,0.6,0.9C47.7,54.1,47.5,53.8,47.3,53.5z"/>
	<path class="st1" d="M47.4,71.2C47.4,71.1,47.4,71.1,47.4,71.2c0-0.1,0.1-0.2,0.1-0.3C47.5,70.9,47.5,71,47.4,71.2
		C47.4,71.1,47.4,71.1,47.4,71.2z"/>
	<path class="st1" d="M48.5,56.1c0.3,0.8,0.5,1.7,0.6,2.6C49,57.8,48.8,56.9,48.5,56.1z"/>
	<path class="st1" d="M40.9,49.7C40.9,49.7,40.9,49.6,40.9,49.7C40.8,49.6,40.8,49.6,40.9,49.7C40.8,49.6,40.8,49.7,40.9,49.7z"/>
	<path class="st1" d="M41.4,50.1L41.4,50.1C41.4,50.2,41.4,50.2,41.4,50.1C41.4,50.2,41.4,50.2,41.4,50.1z"/>
	<path class="st1" d="M40.3,50.1c0,0.4,0.3,0.7,0.7,0.6c3-0.4,5.5,2.2,6.7,4.7c1.1,2.5,1.3,5.4,1,8.2c-0.3,2.8-1,5.4-2,7.9
		c-0.6,1.4-1,2.9-1.2,4.4c-0.1,0.9-0.1,1.7-0.1,2.6c0.3-0.6,0.4-1.3,0.4-2.1c0-0.7-0.1-1.4,0.3-2c0.7-1.2,1-2.1,1.5-3.3l0,0
		c0-0.1,0.1-0.2,0.1-0.3c1.2-3.1,2.1-7.2,1.7-11c0-0.1,0-0.1,0-0.2c0-0.3-0.1-0.6-0.1-0.9c-0.1-0.9-0.3-1.8-0.6-2.6
		c-0.2-0.6-0.4-1.1-0.7-1.7c-0.2-0.3-0.4-0.6-0.6-0.9c-1.3-1.9-3.5-3.5-5.8-3.4v0.1l-0.1-0.1c-0.2,0-0.3,0-0.5,0c0-0.2,0-0.3,0-0.5
		l-0.1-0.1H41c-0.2-3.9-3-7.6-7-7.9c-0.1,0.1-0.2,0.2-0.3,0.3C37.6,42.5,40.4,46.1,40.3,50.1z"/>
	<path class="st1" d="M36.3,32.7C36.3,32.8,36.3,32.8,36.3,32.7c0.7,1.6,0.6,3.6-0.2,5.2c-0.6,1.2-1.4,2.4-2.5,3.2l-0.1,0.1
		c0.3,0,0.5,0,0.7,0.1c1-1,1.9-2.1,2.4-3.4c0.7-1.7,0.8-3.9-0.1-5.5l0,0C36.5,32.5,36.4,32.7,36.3,32.7z"/>
	<path class="st1" d="M2.6,88.6c1-10.3,0.8-22.8,3.4-33.5c0.1-0.3,0.1-0.5,0.2-0.7c0.1-0.3,0.2-0.6,0.2-0.8c0.1-0.3,0.2-0.7,0.3-1
		c0.1-0.5,0.3-1,0.5-1.4c0.1-0.3,0.2-0.7,0.3-1c0.2-0.5,0.4-1,0.6-1.6c0.1-0.3,0.2-0.5,0.3-0.8c0.3-0.8,0.6-1.6,1-2.3l0,0
		c0.8-1.6,1.8-3.2,2.9-4.6c0.5-0.6,1.3-1.2,1.6-1.9c0.1-0.1,0.1-0.3,0.1-0.4c-0.1,0-0.2,0-0.3-0.1c-0.3,0.3-0.5,0.5-0.7,0.8
		c-3,3.5-5.1,7.6-6.5,12c-3,9.3-3.2,19.3-3.8,29c-0.3,5.2-0.9,10.4-1.4,15.6c-0.5,5.7-1,11.3-1.3,17h0.6
		C1.1,104.7,1.8,96.7,2.6,88.6z"/>
	<path class="st1" d="M24.9,31.6c1.7-0.5,3.2-1.1,5-1.3c1.8-0.2,3.8-0.1,5.2,1c0,0,0-0.1,0.1-0.1c0.1-0.1,0.2-0.2,0.3-0.2
		c-1.4-1.1-3.4-1.4-5.1-1.2c-1.9,0.1-3.9,0.6-5.7,1.2c0.1,0.1,0.1,0.2,0.2,0.4C24.9,31.5,24.9,31.6,24.9,31.6z"/>
	<path class="st1" d="M8,48.5c0.1-0.3,0.2-0.5,0.3-0.8C8.2,48,8.1,48.2,8,48.5z"/>
	<path class="st1" d="M6.4,53.5c0.1-0.3,0.2-0.7,0.3-1C6.6,52.8,6.5,53.2,6.4,53.5z"/>
	<path class="st1" d="M7.1,51c0.1-0.3,0.2-0.7,0.3-1C7.3,50.4,7.2,50.7,7.1,51z"/>
	<path class="st1" d="M3.3,85.7C3.9,77.4,4,69,5.3,60.8c0-2,0.3-4.2,0.7-5.8C3.4,65.8,3.6,78.3,2.6,88.6c-0.8,8-1.5,16.1-2,24.2h0.6
		c0.2-3.6,0.5-7.1,0.8-10.7C2.4,96.6,3,91.2,3.3,85.7z"/>
	<path class="st1" d="M12.3,40.8c-1.1,1.4-2.1,3-2.9,4.6l0,0l0,0C10.2,43.8,11.2,42.3,12.3,40.8z"/>
	<path class="st1" d="M6.7,52.5c0.1-0.5,0.3-1,0.5-1.4C6.9,51.5,6.8,52,6.7,52.5z"/>
	<path class="st1" d="M6.1,54.3c0,0.3-0.1,0.5-0.1,0.8c0.1-0.5,0.3-1.1,0.4-1.6C6.3,53.8,6.2,54.1,6.1,54.3z"/>
	<path class="st1" d="M8.3,47.7C8.7,47,9,46.2,9.4,45.5C9,46.2,8.7,47,8.3,47.7z"/>
	<path class="st1" d="M7.4,50.1c0.2-0.5,0.4-1,0.6-1.6C7.8,49,7.6,49.5,7.4,50.1z"/>
	<path class="st1" d="M35.6,32.8L35.6,32.8c0.2,0.3,0.4,0.8,0.5,1.4c0.4,2.3-0.8,4.4-2.3,6c-0.8,0.9-1.7,1.6-2.6,2.4
		c-0.5,0.4,0.1,1.2,0.7,0.8c0.6-0.5,1.1-0.9,1.7-1.4c-0.1,0-0.1,0-0.2,0c-0.5-0.1-0.4-0.7,0.1-0.7c0,0,0,0,0.1,0l0.1-0.1
		c1-0.8,1.9-2,2.5-3.2c0.8-1.6,0.9-3.6,0.1-5.2C36,32.9,35.8,32.9,35.6,32.8z"/>
	<path class="st1" d="M5.3,60.9c0.2-1.1,0.4-2.1,0.6-3.2c0.9-4.4,2.2-8.8,4.4-12.7c2.1-3.8,5.1-7.2,8.7-9.8
		c3.5-2.5,7.9-4.3,12.2-4.4c1.7,0,3.4,0.5,4.3,1.8c-0.1-0.1-0.1-0.3-0.1-0.5l0,0c-0.1,0-0.3-0.1-0.3-0.2c-0.1-0.1-0.1-0.3,0-0.5
		c-1.4-1.1-3.4-1.2-5.2-1c-1.8,0.2-3.4,0.8-5,1.3c0,0.3-0.4,0.6-0.7,0.3c-0.2-0.1-0.4-0.3-0.6-0.5c-3.5,1.4-6.6,3.6-9.3,6.3
		c0,0.1,0,0.3,0,0.4c0,0.2-0.2,0.3-0.3,0.3c0,0.1,0,0.3-0.1,0.4c-0.3,0.7-1.1,1.3-1.6,1.9c-1.1,1.4-2.1,3-2.9,4.6l0,0
		C9,46.2,8.7,47,8.3,47.7C8.2,48,8.1,48.2,8,48.5c-0.2,0.5-0.4,1-0.6,1.6c-0.1,0.3-0.2,0.7-0.3,1c-0.2,0.5-0.3,1-0.5,1.4
		c-0.1,0.3-0.2,0.7-0.3,1c-0.1,0.5-0.3,1-0.4,1.6C5.6,56.6,5.3,58.8,5.3,60.9z"/>
	<path class="st1" d="M33.5,41.7c0.1,0,0.3,0,0.4,0c0.2-0.1,0.3-0.3,0.4-0.4c-0.2,0-0.5-0.1-0.7-0.1C33.4,41.3,33.3,41.5,33.5,41.7z
		"/>
	<path class="st1" d="M33.4,41.9c0.1,0,0.1,0,0.2,0c0.1-0.1,0.2-0.2,0.3-0.3c-0.1,0-0.3,0-0.4,0c-0.1-0.1,0-0.3,0.1-0.5
		c0,0,0,0-0.1,0C33,41.2,32.9,41.9,33.4,41.9z"/>
	<path class="st1" d="M14,36.3c-0.2-2-0.1-4.1,1-5.7c0.5-0.6,1.1-1.1,1.8-1.4l0,0c-0.1-0.1-0.1-0.1-0.1-0.2c-0.8,0.4-1.5,0.9-2,1.5
		c-0.8,1-0.9,2.2-1,3.4c-0.1,1.4-0.2,2.9,0,4.3c0,0.1,0,0.1,0.1,0.2c0.1-0.1,0.2-0.2,0.3-0.4C14.1,37.5,14,36.9,14,36.3z"/>
	<path class="st1" d="M18.3,28.8c0.2,0,0.4-0.1,0.7-0.1c1.5,0,3,0.6,4.2,1.5c0.4,0.3,0.7,0.7,0.8,1.1c0.2-0.1,0.5-0.2,0.7-0.3
		c-0.6-1.1-1.9-1.9-3-2.3s-2.3-0.5-3.5-0.2c0,0,0,0.1,0.1,0.1C18.3,28.6,18.3,28.7,18.3,28.8z"/>
	<path class="st1" d="M14.3,37.8c0-1.3-0.3-2.6-0.2-3.8c0.1-1.5,0.7-2.9,1.9-3.8s2.9-1.4,4.3-0.9c0.7,0.3,1.4,0.6,2,1.1
		c0.5,0.3,0.8,0.7,1.2,1.1c0.1,0,0.2-0.1,0.3-0.1c0,0,0,0,0.1,0c-0.2-0.4-0.5-0.8-0.8-1.1c-1.1-1-2.7-1.6-4.2-1.5
		c-0.2,0-0.4,0-0.7,0.1c0,0.1,0,0.1,0,0.2s-0.1,0.2-0.2,0.2c-0.1,0.1-0.2,0.1-0.3,0.1c-0.1,0-0.2-0.1-0.3-0.1c0,0,0,0,0-0.1
		c-0.1,0.2-0.3,0.4-0.5,0.4c-0.1,0-0.2-0.1-0.2-0.1c-0.7,0.3-1.3,0.8-1.8,1.4c-1.2,1.6-1.3,3.7-1,5.7c0.1,0.5,0.1,1.2,0.1,1.7
		C14.2,38,14.3,37.9,14.3,37.8z"/>
	<path class="st1" d="M14,38.5c0-0.2,0.1-0.3,0.1-0.5c-0.1,0.1-0.2,0.2-0.3,0.4C13.8,38.5,13.9,38.5,14,38.5z"/>
	<path class="st1" d="M24.1,31.9c0.3-0.1,0.5-0.2,0.8-0.2c0-0.1,0-0.1,0-0.2c-0.1-0.1-0.1-0.2-0.2-0.4c-0.2,0.1-0.5,0.2-0.7,0.3
		C24,31.5,24.1,31.7,24.1,31.9z"/>
	<path class="st1" d="M14.4,38.2c0-0.1,0-0.3,0-0.4c-0.1,0.1-0.2,0.2-0.3,0.3c0,0.2,0,0.3-0.1,0.5C14.2,38.5,14.3,38.4,14.4,38.2z"
		/>
	<path class="st1" d="M23.6,31.5c0.2,0.2,0.4,0.3,0.6,0.5c0.3,0.2,0.7,0,0.7-0.3c-0.3,0.1-0.5,0.2-0.8,0.2c0-0.2-0.1-0.4-0.1-0.5
		c0,0,0,0-0.1,0C23.8,31.4,23.7,31.4,23.6,31.5z"/>
	<path class="st1" d="M16.8,28c0.3-0.1,0.5-0.2,0.8-0.3c0,0.2,0,0.5,0,0.7c0,0.1,0,0.1,0,0.2c0.1,0,0.2-0.1,0.2-0.1
		c0.1,0,0.3,0,0.4-0.1c-0.2-0.3-0.4-0.7-0.6-1c-0.1-0.1-0.1-0.2-0.2-0.2s-0.2-0.1-0.3,0c-0.2,0-0.4,0.2-0.4,0.4c0,0.2,0,0.5-0.1,0.7
		c0,0.1,0,0.2,0,0.3c0,0.1,0,0.1,0,0.2s0,0.1,0,0.2c0.2-0.1,0.5-0.2,0.7-0.3C17.2,28.5,17,28.2,16.8,28z"/>
	<path class="st1" d="M17.6,28.4c0-0.2,0-0.5,0-0.7c-0.3,0.1-0.5,0.2-0.8,0.3c0.2,0.2,0.3,0.5,0.5,0.7c0.1,0,0.2-0.1,0.2-0.1
		C17.6,28.6,17.6,28.5,17.6,28.4z"/>
	<path class="st1" d="M17.6,28.9c0-0.1,0-0.1,0-0.2v-0.1c-0.1,0-0.2,0.1-0.2,0.1C17.4,28.8,17.4,28.9,17.6,28.9
		C17.5,29,17.5,28.9,17.6,28.9C17.5,28.9,17.5,28.9,17.6,28.9z"/>
	<path class="st1" d="M17.6,28.6v0.1c0,0.1,0,0.1,0,0.2l0,0c0.3-0.1,0.5-0.1,0.8-0.2c0-0.1,0-0.1,0-0.2c0,0,0-0.1-0.1-0.1
		s-0.3,0-0.4,0.1C17.7,28.6,17.7,28.6,17.6,28.6z"/>
	<path class="st1" d="M16.8,29.2c0.2-0.1,0.5-0.2,0.7-0.3c-0.1-0.1-0.1-0.2-0.2-0.2c-0.2,0.1-0.5,0.2-0.7,0.3
		C16.7,29.1,16.7,29.2,16.8,29.2L16.8,29.2z"/>
	<path class="st1" d="M17.5,28.9C17.5,28.9,17.5,29,17.5,28.9C17.5,29,17.5,29,17.5,28.9C17.5,29,17.5,29,17.5,28.9z"/>
	<path class="st1" d="M17.5,29L17.5,29c-0.3,0-0.5,0.1-0.7,0.2c0.1,0.1,0.1,0.1,0.2,0.1C17.3,29.4,17.5,29.2,17.5,29z"/>
	<path class="st1" d="M17.6,29.1c0.1,0.1,0.2,0.1,0.3,0.1c0.1,0,0.2,0,0.3-0.1c0.1,0,0.1-0.1,0.2-0.2c0,0,0-0.1,0-0.2
		c-0.3,0-0.5,0.1-0.8,0.2C17.5,29,17.5,29,17.6,29.1C17.5,29,17.6,29,17.6,29.1z"/>
	<path class="st1" d="M35.9,31.4c0.1-0.1,0.2-0.3,0.3-0.4c0.1,0.3,0.3,0.6,0.4,0.8c-0.1,0-0.2,0-0.3,0l0,0c0.1,0.1,0.2,0.3,0.3,0.5
		c0-0.1,0.1-0.1,0.1-0.2c0.1-0.2,0.2-0.3,0.3-0.5s0.1-0.4,0-0.5c-0.1-0.2-0.3-0.3-0.4-0.3c-0.3,0-0.5,0-0.8,0.1
		c-0.1,0-0.3,0.1-0.4,0.1l0,0C35.7,31.2,35.8,31.3,35.9,31.4z"/>
	<path class="st1" d="M36.3,31.9L36.3,31.9L36.3,31.9L36.3,31.9z"/>
	<path class="st1" d="M36.3,31.9C36.3,31.9,36.4,31.9,36.3,31.9C36.4,31.9,36.4,31.9,36.3,31.9c0.1,0,0.2,0,0.3,0
		c-0.1-0.3-0.3-0.6-0.4-0.8c-0.1,0.1-0.2,0.3-0.3,0.4C36.1,31.6,36.2,31.7,36.3,31.9L36.3,31.9z"/>
	<path class="st1" d="M36.3,31.9L36.3,31.9L36.3,31.9C36.4,31.9,36.4,31.9,36.3,31.9C36.4,31.9,36.3,31.9,36.3,31.9z"/>
	<path class="st1" d="M35.5,32.6L35.5,32.6L35.5,32.6z"/>
	<path class="st1" d="M35.9,32L35.9,32L35.9,32L35.9,32z"/>
	<path class="st1" d="M35.9,32L35.9,32C35.8,32,35.8,32,35.9,32C35.8,32,35.8,32,35.9,32c0.1,0.3,0.3,0.6,0.4,0.9c0,0,0.1,0,0.1-0.1
		c0.1-0.1,0.2-0.2,0.3-0.3l0,0c-0.1-0.2-0.2-0.3-0.3-0.5C36.2,31.9,36,31.9,35.9,32z"/>
	<path class="st1" d="M35.1,31.4c0.1,0.1,0.2,0.1,0.2,0.2c0.1,0.1,0.2,0.2,0.2,0.3c0,0,0-0.1,0.1-0.1c0.1-0.1,0.1-0.2,0.2-0.2
		c0,0,0-0.1,0.1-0.1c-0.1-0.1-0.3-0.2-0.4-0.4c-0.1,0.1-0.2,0.1-0.3,0.2C35.2,31.3,35.2,31.4,35.1,31.4z"/>
	<path class="st1" d="M35.9,32L35.9,32C35.8,32,35.8,32,35.9,32L35.9,32C36,32,36,32,35.9,32L35.9,32c0.2,0,0.3-0.1,0.5-0.1l0,0
		c0,0,0,0-0.1,0c0,0,0,0,0.1,0l0,0c-0.1-0.2-0.3-0.3-0.4-0.4c0,0,0,0.1-0.1,0.1c-0.1,0.1-0.1,0.2-0.2,0.2c0,0,0,0.1-0.1,0.1
		c0,0.1,0.1,0.1,0.1,0.2C35.8,32,35.8,32,35.9,32z"/>
	<path class="st1" d="M36.3,31.9L36.3,31.9L36.3,31.9L36.3,31.9z"/>
	<path class="st1" d="M35.5,32.1C35.5,32.1,35.4,32.1,35.5,32.1c-0.1,0.2-0.1,0.4,0,0.5l0,0l0.1,0.1c0.2,0.1,0.4,0.1,0.6,0
		c-0.1-0.3-0.3-0.5-0.5-0.8c0,0,0,0-0.1,0C35.6,32.1,35.5,32.1,35.5,32.1z"/>
	<path class="st1" d="M35.1,31.9c0.1,0.1,0.2,0.2,0.3,0.2c0-0.1,0.1-0.1,0.1-0.2c-0.1-0.1-0.2-0.2-0.2-0.3c-0.1-0.1-0.1-0.1-0.2-0.2
		C35,31.6,35,31.8,35.1,31.9z"/>
	<path class="st1" d="M35.7,32.1C35.7,32,35.7,32,35.7,32.1c0-0.1,0-0.1-0.1-0.2c0,0.1-0.1,0.1-0.1,0.2
		C35.5,32.1,35.6,32.1,35.7,32.1z"/>
</g>
</svg>
