<?xml version="1.0" encoding="utf-8"?>
<!-- Generator: Adobe Illustrator 24.1.0, SVG Export Plug-In . SVG Version: 6.00 Build 0)  -->
<svg version="1.1" id="chat_x5F_meow" xmlns="http://www.w3.org/2000/svg" xmlns:xlink="http://www.w3.org/1999/xlink" x="0px"
	 y="0px" viewBox="0 0 290.8 115.5" style="enable-background:new 0 0 290.8 115.5;" xml:space="preserve">
<style type="text/css">
	.st0{fill-rule:evenodd;clip-rule:evenodd;fill:#424242;}
	.st1{fill:#424242;}
</style>
<g>
	<g id="eyes">
		<path class="st0" d="M75.2,43.2c0.6,0.6,1.5,0.6,2.1,0.1c0.6-0.6,0.6-1.6,0.1-2.2c-2.2-2.4-5-3.7-7.9-3.8c-2.9-0.1-5.8,1-8.1,3.3
			c-0.6,0.6-0.6,1.6-0.1,2.2c0.6,0.6,1.5,0.6,2.1,0.1c1.7-1.7,3.9-2.5,6-2.5C71.4,40.5,73.5,41.4,75.2,43.2z"/>
		<path class="st0" d="M38.9,43.2c0.6,0.6,1.5,0.6,2.1,0.1c0.6-0.6,0.6-1.6,0.1-2.2c-2.2-2.4-5-3.7-7.9-3.8c-2.9-0.1-5.8,1-8.1,3.3
			c-0.6,0.6-0.6,1.6-0.1,2.2c0.6,0.6,1.5,0.6,2.1,0.1c1.7-1.7,3.9-2.5,6-2.5C35.1,40.5,37.3,41.4,38.9,43.2z"/>
	</g>
	<path class="st1" d="M65.2,61.3c-0.8-0.2-1.6,0.2-1.8,1.1c-0.5,2-1.5,3.2-2.5,3.9c-0.8,0.5-1.8,0.7-2.8,0.6c-1-0.1-2-0.4-2.9-1
		c-1.2-0.7-2.1-1.8-2.4-3c0.2-0.2,0.4-0.4,0.6-0.6c0.1,0,0.1,0,0,0c0.1-0.1,0.2-0.2,0.4-0.3c1.2-1.1,3.3-2.6,3.3-4
		c0-0.2,0-0.4-0.1-0.6l0,0c-0.3-1.4-1.5-2.3-2.8-2.3c-0.9,0-1.8,0.4-2.3,1.2l-0.2,0.3l-0.2-0.3c-0.5-0.7-1.4-1.2-2.3-1.2
		c-1.4,0-2.6,1-2.8,2.3l0,0c0,0.2-0.1,0.4-0.1,0.6c0,1.4,1.4,3,2.6,4c0.4,0.3,0.8,0.6,1.1,0.9c-0.3,1.2-1.2,2.2-2.4,3
		c-0.9,0.6-1.9,0.9-2.9,1c-1,0.1-1.9-0.1-2.8-0.6c-1.1-0.7-2-1.9-2.5-3.9c-0.2-0.8-1-1.3-1.8-1.1c-0.8,0.2-1.2,1.1-1,1.9
		c0.8,2.9,2.2,4.7,3.9,5.7c1.4,0.8,2.9,1.1,4.4,1c1.5-0.1,2.9-0.6,4.2-1.4c0.9-0.6,1.7-1.3,2.4-2.2c0.7,0.8,1.5,1.6,2.4,2.2
		c1.2,0.8,2.7,1.3,4.2,1.4c1.5,0.1,3.1-0.2,4.4-1c1.7-1,3.1-2.9,3.9-5.7C66.4,62.3,66,61.5,65.2,61.3z"/>
	<path id="fa_e" class="st0" d="M13.7,20.2c0.5-0.5,1-0.9,1.5-1.3c2.8-2.4,5.8-4.4,9.2-6.2c-1.9-1.4-9.1-6.6-11.4-5.4
		C10.6,8.4,12.3,15.6,13.7,20.2L13.7,20.2z M93.1,25.2c5.7,7.1,9.1,15.8,9.1,25.2c0,8.2-2.6,15.9-7,22.5c-3.5,5.2-8.3,9.7-13.9,13.2
		l2.6,17c0.3,1.7-0.8,3.3-2.4,3.6c-0.6,0.1-1.1,0-1.6-0.2l0,0L54.5,94.5c-0.4,0-0.9,0-1.4,0.1c-0.9,0-1.6,0-2.1,0
		c-14,0-26.7-4.9-35.9-12.7C5.8,73.9,0,62.7,0,50.4C0,41,3.4,32.3,9.1,25.2c-1.4-4.3-5.8-20,1.5-23.6c2.2-1.1,5.2-1,9.3,1
		c2.8,1.4,6.3,3.7,10.7,7.3c6.3-2.4,13.2-3.7,20.5-3.7c7.3,0,14.2,1.3,20.5,3.7C76.2,6,80,3.6,82.9,2.3c4.5-2,7.6-1.7,9.8,0
		C98.4,6.7,94.4,21.1,93.1,25.2L93.1,25.2z M77.8,12.7c3.3,1.8,6.4,3.9,9.2,6.2c0.5,0.4,1,0.9,1.5,1.3c1.3-4.4,2.9-11.3,0.8-12.9
		C87.3,5.8,79.4,11.4,77.8,12.7L77.8,12.7z M76.5,81.8c-0.9,0.5-1.8,1-2.8,1.5c-0.6,0.3-1.3,0.6-2.1,0.9c-0.7,0.3-1.5,0.6-2.3,0.9
		c-1.5,0.6-2.3,2.3-1.8,3.9c0.5,1.6,2.2,2.5,3.7,1.9c0.9-0.3,1.7-0.6,2.5-1c0.7-0.3,1.3-0.6,2-0.9l1.4,9.3l-20.9-9.8
		c-1-0.5-2.2-0.2-3.3-0.2c-0.4,0-1.1,0-1.9,0c-12.6,0-24-4.3-32.2-11.4c-8-6.9-13-16.3-13-26.7c0-10.4,5-19.8,13-26.7
		c8.2-7,19.6-11.4,32.2-11.4c12.6,0,24,4.3,32.2,11.4c8,6.9,13,16.3,13,26.7c0,6.9-2.1,13.3-5.9,18.8c-3.4,5-8,9.2-13.6,12.5
		C76.7,81.7,76.6,81.8,76.5,81.8z"/>
</g>
<g>
	<path class="st1" d="M118.2,9.5c0.2-1.4,0.9-2.1,2.3-2.1h3.3c1.2,0,2.1,0.6,2.5,1.8l6.7,16.8c0.2,0.6,0.4,1.2,0.7,1.8
		c0.2,0.6,0.4,1.2,0.6,1.8l0.6,1.9h0.1c0.2-0.6,0.4-1.3,0.6-1.9c0.2-0.6,0.4-1.2,0.6-1.8c0.2-0.6,0.5-1.2,0.7-1.8l6.7-16.8
		c0.4-1.2,1.3-1.8,2.5-1.8h3.3c1.4,0,2.2,0.7,2.3,2.1l2.7,33.2c0.1,1.5-0.6,2.3-2.1,2.3H150c-1.4,0-2.2-0.7-2.3-2.1L146.3,24
		c-0.1-0.6-0.1-1.2-0.1-1.9s0-1.3,0-1.9c0-0.7,0-1.3,0.1-2h-0.1c-0.2,0.7-0.5,1.4-0.7,2.1c-0.2,0.6-0.4,1.2-0.7,1.9
		c-0.2,0.7-0.5,1.3-0.7,1.8l-5.5,12.8c-0.4,1.2-1.3,1.7-2.5,1.7h-2.2c-1.3,0-2.1-0.6-2.5-1.7L126,24c-0.2-0.5-0.4-1.1-0.7-1.8
		c-0.2-0.7-0.5-1.3-0.7-1.9c-0.2-0.7-0.5-1.4-0.7-2.1h-0.1c0,0.7,0.1,1.3,0.1,2c0,0.6,0,1.2,0,1.9s0,1.3-0.1,1.9l-1.4,18.9
		c-0.1,1.4-0.9,2.1-2.3,2.1h-2.4c-1.5,0-2.2-0.8-2.1-2.3L118.2,9.5z"/>
	<path class="st1" d="M162,9.6c0-1.5,0.7-2.2,2.2-2.2h18.1c1.5,0,2.2,0.7,2.2,2.2v1.5c0,1.4-0.7,2.2-2.2,2.2h-13.5v10h10.5
		c1.5,0,2.2,0.7,2.2,2.2v1.5c0,1.5-0.7,2.2-2.2,2.2h-10.5v10.2h14.4c1.5,0,2.2,0.7,2.2,2.2v1.5c0,1.5-0.7,2.2-2.2,2.2h-19
		c-1.4,0-2.2-0.7-2.2-2.2V9.6z"/>
	<path class="st1" d="M188.6,26c0-2.7,0.5-5.2,1.4-7.5s2.3-4.4,4-6.1c1.7-1.7,3.8-3.1,6.1-4.1c2.4-1,5-1.5,7.8-1.5
		c2.9,0,5.5,0.5,7.8,1.5c2.4,1,4.4,2.4,6.1,4.1c1.7,1.7,3.1,3.8,4,6.1s1.4,4.8,1.4,7.5c0,2.8-0.5,5.3-1.4,7.7s-2.3,4.5-4,6.3
		c-1.7,1.8-3.8,3.2-6.1,4.2c-2.4,1-5,1.5-7.8,1.5c-2.9,0-5.5-0.5-7.8-1.5s-4.4-2.4-6.1-4.2c-1.7-1.8-3.1-3.9-4-6.3
		S188.6,28.7,188.6,26z M195.7,26c0,1.9,0.3,3.7,0.9,5.3c0.6,1.6,1.5,3.1,2.6,4.3c1.1,1.2,2.4,2.1,3.9,2.8c1.5,0.7,3.2,1,5,1
		c1.8,0,3.5-0.3,5-1c1.5-0.7,2.8-1.6,3.9-2.8c1.1-1.2,2-2.6,2.6-4.3s0.9-3.4,0.9-5.3c0-1.8-0.3-3.5-0.9-5.1
		c-0.6-1.6-1.5-2.9-2.6-4.1c-1.1-1.2-2.4-2.1-3.9-2.7c-1.5-0.7-3.2-1-5-1c-1.8,0-3.5,0.3-5,1c-1.5,0.7-2.8,1.6-3.9,2.7
		c-1.1,1.2-2,2.5-2.6,4.1C196,22.4,195.7,24.1,195.7,26z"/>
	<path class="st1" d="M231.1,9.9c-0.2-0.7-0.1-1.3,0.2-1.8c0.3-0.4,0.9-0.7,1.7-0.7h2.7c1.3,0,2.1,0.7,2.4,2l5.5,24.1
		c0.1,0.5,0.2,1,0.3,1.5c0.1,0.5,0.1,0.9,0.2,1.3c0.1,0.4,0.1,0.8,0.1,1.2h0.1c0-0.4,0.1-0.7,0.2-1.2c0.1-0.8,0.3-1.7,0.6-2.8
		l6.3-24.1c0.4-1.3,1.2-1.9,2.5-1.9h1.8c1.3,0,2.1,0.6,2.4,1.9l6.2,24.1c0.1,0.6,0.3,1.1,0.4,1.5c0.1,0.5,0.2,0.9,0.3,1.3
		c0.1,0.4,0.1,0.8,0.2,1.2h0.1c0-0.4,0.1-0.7,0.2-1.2c0.1-0.4,0.1-0.8,0.2-1.3c0.1-0.5,0.2-1,0.3-1.5l5.8-24.1c0.2-1.3,1.1-2,2.4-2
		h2.5c0.8,0,1.4,0.2,1.7,0.7c0.3,0.4,0.4,1,0.2,1.8l-8.6,33.3c-0.4,1.2-1.2,1.9-2.5,1.9h-3.8c-1.3,0-2.1-0.6-2.4-1.9l-5.4-20.4
		c-0.3-1.2-0.6-2.4-0.7-3.4c-0.1-0.5-0.2-1-0.3-1.5h-0.2c-0.1,0.5-0.2,1-0.3,1.5c-0.1,0.5-0.2,1-0.3,1.6c-0.1,0.6-0.3,1.2-0.4,1.8
		l-5.4,20.4c-0.3,1.3-1.1,1.9-2.4,1.9h-3.8c-1.3,0-2.1-0.6-2.4-1.9L231.1,9.9z"/>
	<path class="st1" d="M128.1,81.1c0-2.7,0.5-5.3,1.4-7.6c1-2.3,2.3-4.4,4-6.1c1.7-1.7,3.8-3.1,6.1-4.1c2.4-1,5-1.5,7.8-1.5
		c1.5,0,2.9,0.1,4.2,0.4c1.3,0.3,2.4,0.6,3.5,1c1,0.4,1.9,0.8,2.7,1.2c0.8,0.4,1.4,0.8,1.9,1.2c1.1,0.8,1.2,1.8,0.4,3.1l-1,1.5
		c-0.7,1.2-1.7,1.3-3,0.5c-0.8-0.5-1.9-1.1-3.4-1.7c-1.4-0.6-3.1-0.9-5.1-0.9c-2,0-3.9,0.3-5.4,1s-2.9,1.6-3.9,2.8
		c-1.1,1.2-1.9,2.6-2.4,4.1c-0.5,1.6-0.8,3.2-0.8,5c0,1.8,0.3,3.5,0.8,5.1c0.6,1.6,1.4,3.1,2.5,4.3c1.1,1.2,2.4,2.2,4,3
		c1.6,0.7,3.4,1.1,5.4,1.1c1.1,0,2.1-0.1,3-0.3c0.9-0.2,1.8-0.5,2.6-0.8c0.8-0.3,1.5-0.7,2.1-1.1c0.6-0.4,1.1-0.7,1.6-1.1
		c1.2-0.9,2.3-0.8,3.1,0.4l1.1,1.4c0.8,1.1,0.7,2.2-0.3,3.1c-0.5,0.4-1.2,0.9-2,1.5c-0.8,0.5-1.8,1.1-2.9,1.5
		c-1.1,0.5-2.4,0.9-3.8,1.2c-1.4,0.3-2.9,0.5-4.6,0.5c-3,0-5.6-0.5-8-1.5c-2.4-1-4.4-2.4-6.1-4.1c-1.7-1.7-3-3.8-3.9-6.2
		C128.5,86.4,128.1,83.8,128.1,81.1z"/>
	<path class="st1" d="M167.6,64.6c0-1.5,0.7-2.2,2.2-2.2h2.4c1.4,0,2.2,0.7,2.2,2.2v13.8h17.2V64.7c0-1.5,0.7-2.2,2.2-2.2h2.4
		c1.4,0,2.2,0.7,2.2,2.2v33.2c0,1.5-0.7,2.2-2.2,2.2h-2.4c-1.5,0-2.2-0.7-2.2-2.2V84.3h-17.2v13.6c0,1.5-0.7,2.2-2.2,2.2h-2.4
		c-1.4,0-2.2-0.7-2.2-2.2V64.6z"/>
	<path class="st1" d="M215.4,64.2c0.4-1.2,1.3-1.8,2.5-1.8h3.4c1.3,0,2.1,0.6,2.5,1.8l11.8,33.3c0.3,0.8,0.3,1.4-0.1,1.9
		c-0.3,0.5-0.9,0.7-1.7,0.7h-2.4c-1.3,0-2.1-0.6-2.5-1.8l-2.7-7.8h-13.2l-2.6,7.8c-0.4,1.2-1.2,1.9-2.5,1.9h-2.4
		c-0.8,0-1.4-0.2-1.7-0.7c-0.3-0.5-0.4-1.1-0.1-1.9L215.4,64.2z M224.4,84.8l-3.3-10.1c-0.2-0.5-0.4-1.1-0.5-1.8
		c-0.2-0.7-0.3-1.3-0.5-1.9c-0.2-0.7-0.3-1.4-0.5-2.1h-0.1c-0.2,0.7-0.4,1.4-0.5,2.1c-0.2,0.6-0.3,1.2-0.5,1.9
		c-0.1,0.7-0.3,1.3-0.5,1.8l-3.4,10.1H224.4z"/>
	<path class="st1" d="M245.6,68.2h-10.1c-1.5,0-2.2-0.7-2.2-2.2v-1.5c0-1.5,0.7-2.2,2.2-2.2h27c1.4,0,2.2,0.7,2.2,2.2v1.5
		c0,1.4-0.7,2.2-2.2,2.2h-10.1v29.6c0,1.5-0.7,2.2-2.2,2.2h-2.4c-1.4,0-2.2-0.7-2.2-2.2V68.2z"/>
</g>
</svg>
